<?xml version="1.0" encoding="utf-8"?>
<!-- Generator: Adobe Illustrator 28.0.0, SVG Export Plug-In . SVG Version: 6.00 Build 0)  -->
<svg version="1.1" id="Layer_1" xmlns="http://www.w3.org/2000/svg" xmlns:xlink="http://www.w3.org/1999/xlink" x="0px" y="0px"
	 viewBox="0 0 740.82 242.86" style="enable-background:new 0 0 740.82 242.86;" xml:space="preserve">
<style type="text/css">
	.st0{fill:none;stroke:#EDB600;stroke-width:4;stroke-miterlimit:10;}
	.st1{fill:#EDB600;}
	.st2{fill:none;stroke:#EDB600;stroke-width:4;stroke-linecap:round;stroke-miterlimit:10;}
	.st3{fill:none;stroke:#EDB600;stroke-width:4;stroke-linecap:round;stroke-linejoin:round;stroke-miterlimit:10;}
	.st4{fill:none;stroke:#EDB600;stroke-width:2;stroke-miterlimit:10;}
	.st5{fill:none;}
	.st6{fill:#777D7D;}
</style>
<g>
	<g>
		<line class="st0" x1="381.87" y1="148.48" x2="381.87" y2="105.09"/>
		<path class="st0" d="M370.52,116.83v29.61h-8.82c-5.22,0-9.47-4.28-9.47-9.58v-10.78v-9.48v-7.13v-3.73l2.15-2.01l3.15-2.94
			l4.25-3.98l3.33-3.12l4.29-3.98l2.71-2.56l4.31-4.03l3.27-3.06l2.46-2.31l1.88,1.7l11.37,10.25v56.75h8.6
			c5.22,0,9.47-4.28,9.47-9.58v-26.59c0-2.73-1.16-5.35-3.17-7.15l-7.81-7.05"/>
		<path class="st1" d="M354.47,52.17l-0.08,43.45l-4.27,3.94l-0.1-47.39c1.47,0,1.49-1.55,1.49-1.55h1.47
			C352.98,50.62,353,52.17,354.47,52.17z"/>
		<path class="st1" d="M361.86,47.64l-0.08,41.06l-4.25,3.98l-0.1-45.05c1.47,0,1.49-1.55,1.49-1.55h1.45
			C360.37,46.09,360.41,47.64,361.86,47.64z"/>
		<path class="st1" d="M369.47,47.64l-0.06,33.95l-4.29,3.98l-0.08-37.94c1.47,0,1.49-1.55,1.49-1.55h1.45
			C367.97,46.09,368.02,47.64,369.47,47.64z"/>
		<path class="st1" d="M376.49,47.64L376.43,75l-4.31,4.03l-0.06-31.39c1.45,0,1.49-1.55,1.49-1.55H375
			C375,46.09,375.02,47.64,376.49,47.64z"/>
		<path class="st1" d="M384.09,47.64l-0.04,23.7l-1.88-1.7l-2.46,2.31l-0.04-24.31c1.47,0,1.49-1.55,1.49-1.55h1.45
			C382.6,46.09,382.62,47.64,384.09,47.64z"/>
		<ellipse class="st0" cx="335.9" cy="43.12" rx="4.97" ry="5.03"/>
		<line class="st2" x1="419.54" y1="31.43" x2="335.9" y2="31.43"/>
		<path class="st3" d="M335.9,31.43c-4.6,0-8.55,2.71-10.4,6.65c-0.75,1.53-1.14,3.23-1.14,5.03c0,6.46,5.16,11.7,11.54,11.7
			s11.56-5.24,11.56-11.7c0-1.8-0.39-3.5-1.14-5.03h55.1"/>
		<line class="st5" x1="354.39" y1="95.62" x2="350.12" y2="99.56"/>
	</g>
	<g>
		<path class="st6" d="M135.14,126.1h19.96v22.38H95.09c-12.19,0-22.11-10.04-22.11-22.38c0-12.34,9.92-22.38,22.11-22.38h60.01
			v16.63H99.2c-3.47,0-6.32,2.24-6.32,5.76c0,3.52,2.84,5.76,6.32,5.76h35.94V126.1z"/>
		<path class="st6" d="M195.39,133.13l-37.08-29.42h26.34l20.72,16.5l20.72-16.5h26.34l-37.08,29.42v15.35h-19.96V133.13z
			 M204.93,83.25h19.96L212.38,98.6h-13.9L204.93,83.25z"/>
		<path class="st6" d="M255.64,148.48v-44.77h66.33c11.06,0,17.69,8.95,17.69,17.91c0,8.95-6.63,17.91-17.69,17.91H275.6v8.95
			H255.64z M275.6,119.06v5.12h41.31c1.77,0,2.78-0.96,2.78-2.56s-1.01-2.56-2.78-2.56H275.6z"/>
	</g>
	<g>
		<path class="st6" d="M429.59,116.83c0-7.36,5.18-13.11,13.77-13.11h68.35v15.35h-60.07c-1.52,0-2.09,1.15-2.09,1.92
			c0,0.77,0.57,1.92,2.09,1.92h48.83c8.59,0,13.77,5.12,13.77,12.47c0,7.35-5.18,13.11-13.77,13.11h-68.35v-15.35h60.07
			c1.51,0,2.09-1.15,2.09-1.92s-0.57-1.92-2.09-1.92h-48.83C434.77,129.3,429.59,124.18,429.59,116.83z"/>
		<path class="st6" d="M585.66,102.44c12.19,0,22.11,10.68,22.11,23.02c0,12.34-9.92,23.02-22.11,23.02h-46.11
			c-12.19,0-22.11-10.68-22.11-23.02c0-12.34,9.92-23.02,22.11-23.02H585.66z M543.65,119.06c-3.47,0-6.32,2.88-6.32,6.39
			c0,3.52,2.84,6.39,6.32,6.39h37.9c3.47,0,6.32-2.88,6.32-6.39c0-3.52-2.84-6.39-6.32-6.39H543.65z"/>
		<path class="st6" d="M610.34,116.83c0-7.36,5.18-13.11,13.77-13.11h68.35v15.35h-60.07c-1.52,0-2.09,1.15-2.09,1.92
			c0,0.77,0.57,1.92,2.09,1.92h48.83c8.59,0,13.77,5.12,13.77,12.47c0,7.35-5.18,13.11-13.77,13.11h-68.35v-15.35h60.07
			c1.51,0,2.08-1.15,2.08-1.92s-0.57-1.92-2.08-1.92h-48.83C615.52,129.3,610.34,124.18,610.34,116.83z"/>
	</g>
	<g>
		<path class="st6" d="M340.89,194.35l-4.06,0.74c-0.14-0.82-0.45-1.44-0.93-1.85c-0.48-0.41-1.11-0.62-1.88-0.62
			c-1.02,0-1.84,0.36-2.45,1.08c-0.61,0.72-0.92,1.92-0.92,3.6c0,1.87,0.31,3.19,0.93,3.96c0.62,0.77,1.45,1.16,2.5,1.16
			c0.78,0,1.42-0.23,1.92-0.68c0.5-0.45,0.85-1.22,1.05-2.32l4.04,0.7c-0.42,1.88-1.23,3.3-2.42,4.26
			c-1.19,0.96-2.79,1.44-4.79,1.44c-2.27,0-4.09-0.73-5.44-2.18c-1.35-1.45-2.03-3.46-2.03-6.03c0-2.6,0.68-4.62,2.04-6.07
			c1.36-1.45,3.19-2.17,5.51-2.17c1.89,0,3.4,0.41,4.52,1.24C339.6,191.4,340.41,192.66,340.89,194.35z"/>
		<path class="st6" d="M348.17,189.69h14.07v3.37h-4.98v12.38h-4.12v-12.38h-4.98V189.69z"/>
		<path class="st6" d="M370.58,189.69h3.84V192c0.5-0.79,1.17-1.43,2.02-1.93c0.85-0.49,1.79-0.74,2.83-0.74
			c1.81,0,3.34,0.72,4.6,2.15c1.26,1.43,1.89,3.43,1.89,5.99c0,2.63-0.63,4.67-1.9,6.13c-1.27,1.46-2.81,2.19-4.61,2.19
			c-0.86,0-1.64-0.17-2.34-0.52c-0.7-0.35-1.43-0.94-2.2-1.78v7.93h-4.12V189.69z M374.66,197.3c0,1.77,0.35,3.08,1.04,3.92
			c0.69,0.85,1.54,1.27,2.53,1.27c0.96,0,1.75-0.39,2.39-1.16c0.63-0.78,0.95-2.05,0.95-3.82c0-1.65-0.33-2.88-0.98-3.68
			c-0.65-0.8-1.46-1.2-2.43-1.2c-1.01,0-1.84,0.39-2.5,1.18C374.99,194.59,374.66,195.76,374.66,197.3z"/>
		<path class="st6" d="M394.07,197.34c0-1.38,0.34-2.72,1.01-4.02c0.67-1.29,1.63-2.28,2.86-2.97c1.23-0.68,2.61-1.02,4.14-1.02
			c2.35,0,4.28,0.77,5.79,2.32c1.5,1.55,2.25,3.5,2.25,5.86c0,2.38-0.76,4.36-2.28,5.92s-3.43,2.35-5.73,2.35
			c-1.43,0-2.79-0.33-4.08-0.98c-1.29-0.65-2.28-1.61-2.95-2.87S394.07,199.15,394.07,197.34z M398.29,197.56
			c0,1.56,0.37,2.76,1.1,3.59c0.73,0.83,1.64,1.25,2.71,1.25c1.07,0,1.97-0.42,2.7-1.25c0.73-0.83,1.09-2.04,1.09-3.62
			c0-1.54-0.36-2.73-1.09-3.56c-0.73-0.83-1.63-1.25-2.7-1.25c-1.07,0-1.98,0.42-2.71,1.25C398.65,194.81,398.29,196,398.29,197.56z
			"/>
		<path class="st6" d="M419.24,189.69h3.95v9.89l6.33-9.89h4.04v15.75h-3.95v-10.07l-6.42,10.07h-3.95V189.69z M429.1,183.3h2.01
			c-0.12,1.34-0.58,2.4-1.4,3.17c-0.82,0.77-1.87,1.15-3.17,1.15c-1.3,0-2.36-0.38-3.17-1.15c-0.82-0.77-1.28-1.82-1.4-3.17h2.01
			c0.07,0.7,0.31,1.23,0.73,1.59c0.42,0.36,1.03,0.54,1.83,0.54c0.8,0,1.41-0.18,1.83-0.54C428.79,184.53,429.03,184,429.1,183.3z"
			/>
	</g>
</g>
</svg>
