<?xml version="1.0" encoding="utf-8"?>
<svg version="1.1" xmlns="http://www.w3.org/2000/svg" 
	 viewBox="320 25 100 130">
<style type="text/css">
	.stroke{fill:none;stroke:#EDB600;stroke-width:4;stroke-miterlimit:10;}
	.fill{fill:#EDB600;}
	.stroke-round{fill:none;stroke:#EDB600;stroke-width:4;stroke-linecap:round;stroke-miterlimit:10;}
	.stroke-round-join{fill:none;stroke:#EDB600;stroke-width:4;stroke-linecap:round;stroke-linejoin:round;stroke-miterlimit:10;}
</style>
<g>
	<!-- Vertical line in center -->
	<line class="stroke" x1="381.87" y1="148.48" x2="381.87" y2="105.09"/>
	
	<!-- House outline -->
	<path class="stroke" d="M370.52,116.83v29.61h-8.82c-5.22,0-9.47-4.28-9.47-9.58v-10.78v-9.48v-7.13v-3.73l2.15-2.01l3.15-2.94
		l4.25-3.98l3.33-3.12l4.29-3.98l2.71-2.56l4.31-4.03l3.27-3.06l2.46-2.31l1.88,1.7l11.37,10.25v56.75h8.6
		c5.22,0,9.47-4.28,9.47-9.58v-26.59c0-2.73-1.16-5.35-3.17-7.15l-7.81-7.05"/>
	
	<!-- Column pillars (filled) -->
	<path class="fill" d="M354.47,52.17l-0.08,43.45l-4.27,3.94l-0.1-47.39c1.47,0,1.49-1.55,1.49-1.55h1.47
		C352.98,50.62,353,52.17,354.47,52.17z"/>
	<path class="fill" d="M361.86,47.64l-0.08,41.06l-4.25,3.98l-0.1-45.05c1.47,0,1.49-1.55,1.49-1.55h1.45
		C360.37,46.09,360.41,47.64,361.86,47.64z"/>
	<path class="fill" d="M369.47,47.64l-0.06,33.95l-4.29,3.98l-0.08-37.94c1.47,0,1.49-1.55,1.49-1.55h1.45
		C367.97,46.09,368.02,47.64,369.47,47.64z"/>
	<path class="fill" d="M376.49,47.64L376.43,75l-4.31,4.03l-0.06-31.39c1.45,0,1.49-1.55,1.49-1.55H375
		C375,46.09,375.02,47.64,376.49,47.64z"/>
	<path class="fill" d="M384.09,47.64l-0.04,23.7l-1.88-1.7l-2.46,2.31l-0.04-24.31c1.47,0,1.49-1.55,1.49-1.55h1.45
		C382.6,46.09,382.62,47.64,384.09,47.64z"/>
	
	<!-- Spiral circle -->
	<ellipse class="stroke" cx="335.9" cy="43.12" rx="4.97" ry="5.03"/>
	
	<!-- Top horizontal bar (shortened for favicon) -->
	<line class="stroke-round" x1="401" y1="31.43" x2="335.9" y2="31.43"/>
	
	<!-- Spiral with bar -->
	<path class="stroke-round-join" d="M335.9,31.43c-4.6,0-8.55,2.71-10.4,6.65c-0.75,1.53-1.14,3.23-1.14,5.03c0,6.46,5.16,11.7,11.54,11.7
		s11.56-5.24,11.56-11.7c0-1.8-0.39-3.5-1.14-5.03h36"/>
</g>
</svg>
